<svg width="40" height="41" viewBox="0 0 40 41" fill="none" xmlns="http://www.w3.org/2000/svg">
<path d="M21.9525 5.78711H14.9999C11.8572 5.78711 10.2859 5.78711 9.30956 6.76342C8.33325 7.73973 8.33325 9.31108 8.33325 12.4538V29.1204C8.33325 32.2631 8.33325 33.8345 9.30956 34.8108C10.2859 35.7871 11.8572 35.7871 14.9999 35.7871H24.9999C28.1426 35.7871 29.714 35.7871 30.6903 34.8108C31.6666 33.8345 31.6666 32.2631 31.6666 29.1204V15.5012C31.6666 14.8199 31.6666 14.4793 31.5397 14.173C31.4129 13.8667 31.172 13.6258 30.6903 13.1441L24.3096 6.76342C23.8278 6.2817 23.587 6.04084 23.2807 5.91398C22.9744 5.78711 22.6338 5.78711 21.9525 5.78711Z" stroke="white" stroke-width="2"/>
<path d="M15 22.4537L25 22.4537" stroke="white" stroke-width="2" stroke-linecap="round"/>
<path d="M15 29.1205L21.6667 29.1205" stroke="white" stroke-width="2" stroke-linecap="round"/>
<path d="M21.6667 5.78711V12.4538C21.6667 14.0251 21.6667 14.8108 22.1549 15.299C22.6431 15.7871 23.4287 15.7871 25.0001 15.7871H31.6667" stroke="white" stroke-width="2"/>
</svg>
