<svg width="40" height="41" viewBox="0 0 40 41" fill="none" xmlns="http://www.w3.org/2000/svg">
<path d="M21.9525 5.78717H14.9999C11.8572 5.78717 10.2859 5.78717 9.30956 6.76348C8.33325 7.73979 8.33325 9.31114 8.33325 12.4538V29.1205C8.33325 32.2632 8.33325 33.8345 9.30956 34.8109C10.2859 35.7872 11.8572 35.7872 14.9999 35.7872H24.9999C28.1426 35.7872 29.714 35.7872 30.6903 34.8109C31.6666 33.8345 31.6666 32.2632 31.6666 29.1205V15.5012C31.6666 14.82 31.6666 14.4793 31.5397 14.1731C31.4129 13.8668 31.172 13.6259 30.6903 13.1442L24.3096 6.76348C23.8278 6.28176 23.587 6.04091 23.2807 5.91404C22.9744 5.78717 22.6338 5.78717 21.9525 5.78717Z" stroke="#2D333B" stroke-width="2"/>
<path d="M15 22.4538L25 22.4538" stroke="#2D333B" stroke-width="2" stroke-linecap="round"/>
<path d="M15 29.1205L21.6667 29.1205" stroke="#2D333B" stroke-width="2" stroke-linecap="round"/>
<path d="M21.6667 5.78717V12.4538C21.6667 14.0252 21.6667 14.8109 22.1549 15.299C22.6431 15.7872 23.4287 15.7872 25.0001 15.7872H31.6667" stroke="#2D333B" stroke-width="2"/>
</svg>
