<svg width="41" height="41" viewBox="0 0 41 41" fill="none" xmlns="http://www.w3.org/2000/svg">
<path d="M8.56055 22.0531C8.56055 19.7902 8.56055 18.6588 9.01798 17.6642C9.47542 16.6696 10.3345 15.9333 12.0526 14.4606L13.7193 13.032C16.8248 10.3701 18.3776 9.03918 20.2272 9.03918C22.0768 9.03918 23.6296 10.3701 26.7351 13.032L28.4018 14.4606C30.1199 15.9333 30.979 16.6696 31.4364 17.6642C31.8939 18.6588 31.8939 19.7902 31.8939 22.0531V29.1205C31.8939 32.2632 31.8939 33.8345 30.9176 34.8108C29.9413 35.7871 28.3699 35.7871 25.2272 35.7871H15.2272C12.0845 35.7871 10.5132 35.7871 9.53686 34.8108C8.56055 33.8345 8.56055 32.2632 8.56055 29.1205V22.0531Z" stroke="white" stroke-width="2"/>
<path d="M24.3939 35.7871V26.7871C24.3939 26.2348 23.9462 25.7871 23.3939 25.7871H17.0605C16.5083 25.7871 16.0605 26.2348 16.0605 26.7871V35.7871" stroke="white" stroke-width="2" stroke-linecap="round" stroke-linejoin="round"/>
</svg>
