<svg width="40" height="40" viewBox="0 0 40 40" fill="none" xmlns="http://www.w3.org/2000/svg">
<path fill-rule="evenodd" clip-rule="evenodd" d="M25.1839 6.6679C26.9607 6.69191 27.849 6.70392 28.0934 7.3324C28.3377 7.96088 27.5133 8.73662 25.8646 10.2881C23.2804 12.7199 21.6667 16.1715 21.6667 20C21.6667 23.8285 23.2803 27.2801 25.8646 29.7119C27.5133 31.2634 28.3377 32.0391 28.0934 32.6676C27.849 33.2961 26.9607 33.3081 25.1839 33.3321C25.1228 33.3329 25.0615 33.3333 25.0001 33.3333C17.6363 33.3333 11.6667 27.3638 11.6667 20C11.6667 12.6362 17.6363 6.66666 25.0001 6.66666C25.0615 6.66666 25.1228 6.66707 25.1839 6.6679Z" fill="#2D333B"/>
</svg>
